<svg width="38" height="42" viewBox="0 0 38 42" fill="none" xmlns="http://www.w3.org/2000/svg">
<path d="M19 0C24.2488 0 28.5 4.17667 28.5 9.33333C28.5 14.49 24.2488 18.6667 19 18.6667C13.7512 18.6667 9.5 14.49 9.5 9.33333C9.5 4.17667 13.7512 0 19 0ZM28.5 24.5933C28.5 27.0667 27.835 32.83 23.2988 39.27L21.375 28L23.6075 23.6133C22.135 23.45 20.5912 23.3333 19 23.3333C17.4088 23.3333 15.865 23.45 14.3925 23.6133L16.625 28L14.7012 39.27C10.165 32.83 9.5 27.0667 9.5 24.5933C3.82375 26.2267 0 29.1667 0 32.6667V42H38V32.6667C38 29.1667 34.2 26.2267 28.5 24.5933Z" fill="#243642"/>
</svg>
